<?xml version="1.0" encoding="utf-8"?>
<!-- Generator: Adobe Illustrator 16.0.0, SVG Export Plug-In . SVG Version: 6.00 Build 0)  -->
<!DOCTYPE svg PUBLIC "-//W3C//DTD SVG 1.1//EN" "http://www.w3.org/Graphics/SVG/1.1/DTD/svg11.dtd">
<svg version="1.1" id="Layer_1" xmlns="http://www.w3.org/2000/svg" xmlns:xlink="http://www.w3.org/1999/xlink" x="0px" y="0px"
	 width="224.155px" height="51.778px" viewBox="0 0 224.155 51.778" enable-background="new 0 0 224.155 51.778"
	 xml:space="preserve">
<g>
	<path fill="#525352" d="M14.399,33.539c0,0.96,0,1.8,0.12,2.58c1.44-0.36,2.64-0.54,3.72-0.54c2.04,0,3.54,0.66,4.8,1.62
		c4.08-5.16,7.38-15.299,7.38-23.939c0-6.959-1.38-10.5-7.68-10.5C13.56,2.76,5.46,8.64,5.46,18.179c0,2.34,0.6,2.76,0.6,3.24
		c-3.78,0-6.06-1.38-6.06-5.04C0,7.979,11.52,0,24.179,0c10.5,0,14.219,6.419,14.219,15.359c0,8.459-3.48,20.579-11.459,26.519
		c1.8,2.52,3.72,4.86,7.5,4.86c0.42,0,0.84-0.06,1.32-0.12c-1.56,4.14-3.6,5.16-6.18,5.16c-5.28,0-6.66-3.72-7.74-7.26
		c-1.68,0.54-3.54,0.84-5.58,0.84c-6.3,0-10.74-3.3-10.74-12.06c0-9.719,5.46-28.139,16.26-28.139c1.02,0,2.04,0.12,3.12,0.48
		C19.439,8.939,14.399,24.299,14.399,33.539z M20.159,39.838c-0.72-1.2-1.74-2.04-3.42-2.04c-0.54,0-1.08,0.06-1.74,0.24
		c0.54,1.56,1.44,2.46,2.88,2.46C18.599,40.498,19.439,40.318,20.159,39.838z"/>
	<path fill="#525352" d="M66.479,14.999l-4.32,20.399c-0.18,0.78-0.24,1.38-0.24,1.92c0,1.68,0.78,2.22,2.46,2.22
		c2.34,0,3.96-2.28,4.86-5.28h2.52c-3.42,9.78-8.82,11.1-12.06,11.1c-3.42,0-5.58-1.98-5.94-5.7c-3,4.92-6.36,5.7-8.879,5.7
		c-3.6,0-6.42-2.16-6.42-7.2c0-1.14,0.18-2.46,0.48-3.9l4.08-19.259h8.64l-4.32,20.399c-0.12,0.6-0.18,1.14-0.18,1.68
		c0,1.38,0.48,2.46,1.8,2.46c2.34,0,3.9-2.28,4.8-5.28l4.08-19.259H66.479z"/>
	<path fill="#525352" d="M81.959,14.999l-4.32,20.399c-0.18,0.78-0.24,1.38-0.24,1.92c0,1.68,0.78,2.22,2.459,2.22
		c2.341,0,4.5-2.28,5.4-5.28h2.52c-3.42,9.78-9.359,11.1-12.599,11.1c-3.6,0-6.42-2.16-6.42-7.2c0-1.14,0.18-2.46,0.48-3.9
		l4.08-19.259H81.959z M79.259,2.22c2.64,0,4.8,2.16,4.8,4.8c0,2.64-2.16,4.74-4.8,4.74s-4.74-2.1-4.74-4.74
		C74.519,4.38,76.619,2.22,79.259,2.22z"/>
	<path fill="#525352" d="M97.679,40.318c4.739,0,7.619-2.64,10.619-6.06h2.04c-3.42,5.52-8.52,11.1-16.499,11.1
		c-5.641,0-9.36-2.76-9.36-9.54c0-6.899,3.9-21.359,16.199-21.359c5.34,0,6.601,2.76,6.601,5.76c0,6.899-6.601,12.239-13.8,12.659
		c-0.061,0.84-0.12,1.68-0.12,2.4C93.358,39.358,94.799,40.318,97.679,40.318z M101.158,17.639c-3.06,0-6,6.42-7.2,12.359
		c4.62-0.3,8.7-4.919,8.7-9.899C102.658,18.599,102.298,17.639,101.158,17.639z"/>
	<path fill="#525352" d="M133.736,34.258c-3.119,3.6-6.419,5.88-9.179,7.5c-2.521,2.64-6.36,3.6-9.42,3.6
		c-6.12,0-8.76-4.02-8.76-7.68c0-2.76,1.56-4.8,3.18-5.58c3.36-5.94,5.52-11.879,7.38-17.759l8.88-1.2
		c0.72,15.54,1.319,17.879,1.319,21.839c0,0.84-0.06,1.56-0.239,2.28c1.619-0.96,3.18-2.04,4.319-3H133.736z M111.178,37.198
		c-0.6,0-1.32-0.18-1.62-0.78c0,2.82,1.021,4.2,3.66,4.2s5.22-1.38,5.22-5.58c0-3.12-0.54-4.98-1.14-14.22
		c-1.2,3.9-2.88,7.5-4.86,11.34c0.78,0.36,1.38,1.08,1.38,2.1C113.817,35.698,112.737,37.198,111.178,37.198z"/>
	<path fill="#525352" d="M148.677,20.099c0-1.5-0.54-2.46-1.68-2.46c-3.78,0-7.68,10.979-7.68,17.639c0,4.08,1.44,5.04,4.32,5.04
		c4.739,0,7.619-2.64,10.619-6.06h2.04c-3.42,5.52-8.52,11.1-16.499,11.1c-5.641,0-9.36-2.76-9.36-9.54
		c0-6.959,3.96-21.359,16.14-21.359c5.34,0,6.66,2.76,6.66,5.52c0,2.94-1.44,4.38-3.181,4.38c-0.659,0-1.38-0.24-2.1-0.72
		C148.438,22.319,148.677,21.119,148.677,20.099z"/>
	<path fill="#525352" d="M166.677,40.318c4.739,0,7.619-2.64,10.619-6.06h2.04c-3.42,5.52-8.52,11.1-16.499,11.1
		c-5.641,0-9.36-2.76-9.36-9.54c0-6.899,3.9-21.359,16.199-21.359c5.34,0,6.601,2.76,6.601,5.76c0,6.899-6.601,12.239-13.8,12.659
		c-0.061,0.84-0.12,1.68-0.12,2.4C162.356,39.358,163.797,40.318,166.677,40.318z M170.156,17.639c-3.06,0-6,6.42-7.2,12.359
		c4.62-0.3,8.7-4.919,8.7-9.899C171.656,18.599,171.296,17.639,170.156,17.639z"/>
	<path fill="#525352" d="M192.415,20.219c-2.159,0-3.779,2.52-4.68,5.52l-4.08,19.259h-8.64l6.36-29.999h8.64l-0.66,3.12
		c2.52-2.88,5.16-3.36,7.02-3.36c3.84,0,6.66,1.98,6.66,6.78c0,4.86-2.88,12.12-2.88,15.479c0,1.5,0.6,2.52,2.399,2.52
		c2.64,0,3.72-2.16,5.04-5.28h2.52c-3.359,9.84-7.979,11.1-11.159,11.1c-5.22,0-7.08-3.36-7.08-6.78c0-4.08,2.7-11.459,2.7-15.299
		C194.575,21.299,193.855,20.219,192.415,20.219z"/>
	<path fill="#525352" d="M216.235,35.398c-0.18,0.72-0.3,1.44-0.3,2.1c0,1.26,0.479,2.16,2.1,2.16c0.42,0,1.08,0,1.561-0.18
		c-1.681,5.16-4.32,5.879-6.36,5.879c-4.2,0-6-2.94-6-6.78c0-1.02,0.12-2.1,0.36-3.18l3.84-17.999h-1.979l0.479-2.4h1.98l1.8-8.279
		l8.879-1.2c0,0-0.899,4.08-2.04,9.479h3.601l-0.48,2.4h-3.6L216.235,35.398z"/>
</g>
</svg>
